# xmcd CD database file
#
# Track frame offsets:
#	150
#	16320
#	37139
#	57159
#	79031
#	100933
#	115313
#	142536
#	162662
#	184253
#	203543
#	225626
#	238548
#
# Disc length: 3426 seconds
#
# Revision: 0
# Processed by: cddbd v1.5.1PL0 Copyright (c) Steve Scherf et al.
# Submitted via: CDex 1.51
#
DISCID=a30d600d
DTITLE=Grady Keystone - Hawaiian Moon
DYEAR=2003
DGENRE=Country
TTITLE0=Hawaiian Moon
TTITLE1=Sonar
TTITLE2=True Pacific
TTITLE3=Proximity
TTITLE4=Big Island
TTITLE5=Don't You Think It's Time?
TTITLE6=It's Not OK
TTITLE7=Just Passing Through
TTITLE8=Waikani
TTITLE9=Live Dangerously
TTITLE10=Trade Winds
TTITLE11=Three Mountains
TTITLE12=We Live On and Island
EXTD=YEAR: 2003
EXTT0=
EXTT1=
EXTT2=
EXTT3=
EXTT4=
EXTT5=
EXTT6=
EXTT7=
EXTT8=
EXTT9=
EXTT10=
EXTT11=
EXTT12=
PLAYORDER=
